<svg xmlns="http://www.w3.org/2000/svg" version="1.1" xmlns:xlink="http://www.w3.org/1999/xlink" width="1000" height="1000"><style>
    #light-icon {
      display: inline;
    }
    #dark-icon {
      display: none;
    }

    @media (prefers-color-scheme: dark) {
      #light-icon {
        display: none;
      }
      #dark-icon {
        display: inline;
      }
    }
  </style><g id="light-icon"><svg xmlns="http://www.w3.org/2000/svg" version="1.1" xmlns:xlink="http://www.w3.org/1999/xlink" width="1000" height="1000"><g clip-path="url(#SvgjsClipPath1145)"><rect width="1000" height="1000" fill="#ffffff"></rect><g transform="matrix(1.09375,0,0,1.09375,150,150)"><svg xmlns="http://www.w3.org/2000/svg" version="1.1" xmlns:xlink="http://www.w3.org/1999/xlink" width="640" height="640"><svg xmlns="http://www.w3.org/2000/svg" viewBox="0 0 640 640"><!--!Font Awesome Free 7.0.1 by @fontawesome - https://fontawesome.com License - https://fontawesome.com/license/free Copyright 2025 Fonticons, Inc.--><path d="M576 96C576 204.1 499.4 294.3 397.6 315.4C389.7 257.3 363.6 205 325.1 164.5C365.2 104 433.9 64 512 64L544 64C561.7 64 576 78.3 576 96zM64 160C64 142.3 78.3 128 96 128L128 128C251.7 128 352 228.3 352 352L352 544C352 561.7 337.7 576 320 576C302.3 576 288 561.7 288 544L288 384C164.3 384 64 283.7 64 160z"></path></svg></svg></g></g><defs><clipPath id="SvgjsClipPath1145"><rect width="1000" height="1000" x="0" y="0" rx="300" ry="300"></rect></clipPath></defs></svg></g><g id="dark-icon"><svg xmlns="http://www.w3.org/2000/svg" version="1.1" xmlns:xlink="http://www.w3.org/1999/xlink" width="1000" height="1000"><g clip-path="url(#SvgjsClipPath1146)"><rect width="1000" height="1000" fill="#ffffff"></rect><g transform="matrix(1.09375,0,0,1.09375,150,150)"><svg xmlns="http://www.w3.org/2000/svg" version="1.1" xmlns:xlink="http://www.w3.org/1999/xlink" width="640" height="640"><svg xmlns="http://www.w3.org/2000/svg" viewBox="0 0 640 640"><!--!Font Awesome Free 7.0.1 by @fontawesome - https://fontawesome.com License - https://fontawesome.com/license/free Copyright 2025 Fonticons, Inc.--><path d="M576 96C576 204.1 499.4 294.3 397.6 315.4C389.7 257.3 363.6 205 325.1 164.5C365.2 104 433.9 64 512 64L544 64C561.7 64 576 78.3 576 96zM64 160C64 142.3 78.3 128 96 128L128 128C251.7 128 352 228.3 352 352L352 544C352 561.7 337.7 576 320 576C302.3 576 288 561.7 288 544L288 384C164.3 384 64 283.7 64 160z"></path></svg></svg></g></g><defs><clipPath id="SvgjsClipPath1146"><rect width="1000" height="1000" x="0" y="0" rx="350" ry="350"></rect></clipPath></defs></svg></g></svg>